<?xml version="1.0" encoding="UTF-8"?>
<svg xmlns="http://www.w3.org/2000/svg" xmlns:xlink="http://www.w3.org/1999/xlink" version="1.1" id="Capa_1" x="0px" y="0px" viewBox="0 0 511.999 511.999" style="enable-background:new 0 0 511.999 511.999;" xml:space="preserve" width="512" height="512">
<g>
	
		<path style="fill-rule:evenodd;clip-rule:evenodd;fill:none;stroke:#000000;stroke-width:20.0001;stroke-linecap:round;stroke-linejoin:round;stroke-miterlimit:22.9256;" d="&#10;&#9;&#9;M150.719,255.988L68.2,51.147c-6.136-15.308,1.171-32.745,16.32-38.945c9.092-3.722,19.376-2.684,27.545,2.807l320.738,216.069&#10;&#9;&#9;c13.614,9.172,17.294,27.76,8.217,41.518c-2.349,3.56-5.322,6.444-8.673,8.61L112.065,496.968&#10;&#9;&#9;c-13.615,9.172-32.01,5.453-41.087-8.304c-5.947-9.015-6.417-20.103-2.204-29.258L150.719,255.988z"/>
	
		<polygon style="fill-rule:evenodd;clip-rule:evenodd;fill:none;stroke:#000000;stroke-width:20.0001;stroke-linecap:round;stroke-linejoin:round;stroke-miterlimit:22.9256;" points="&#10;&#9;&#9;160.658,391.889 362.392,255.988 160.657,120.088 215.404,255.988 &#9;"/>
</g>















</svg>
